<svg id="레이어_3" data-name="레이어 3" xmlns="http://www.w3.org/2000/svg" viewBox="0 0 1920 980"><title>트레일러 레이어 마스크</title><path d="M838.57,466.4H826.11v22.52h12.46q5.61,0,8.45-2.95t2.84-8.25q0-5.3-2.87-8.3T838.57,466.4Z"/><polygon points="907.86 502.51 925.44 502.51 916.62 474.15 907.86 502.51"/><path d="M0,0V980H1920V0ZM798.09,466.46H773.55V533H753.84V466.46H729.75V451.24h68.34ZM872.32,533H851.21l-14.44-28.92H826.11V533H806.4V451.24h32.17q14.55,0,22.74,6.45t8.2,18.23q0,8.54-3.45,14.14t-10.81,9.09l17.07,33Zm62.61,0-4.78-15.27h-27L898.43,533H877.37l30-81.76h18.53L956.1,533Zm48.12,0H963.4V451.24h19.65Zm67.72,0h-54V451.24h19.71v66.6h34.31Zm64.74-66.54h-36.72V483.7h31v14.6h-31v19.54h36.61V533h-56.32V451.24h56.43ZM1189.35,533h-21.11l-14.43-28.92h-10.67V533h-19.71V451.24h32.18q14.54,0,22.74,6.45t8.2,18.23q0,8.54-3.46,14.14t-10.81,9.09l17.07,33Z"/><path d="M1155.61,466.4h-12.47v22.52h12.47q5.61,0,8.45-2.95t2.83-8.25q0-5.3-2.86-8.3T1155.61,466.4Z"/></svg>